<?xml version="1.0" standalone="no"?>
<!DOCTYPE svg PUBLIC "-//W3C//DTD SVG 20010904//EN"
 "http://www.w3.org/TR/2001/REC-SVG-20010904/DTD/svg10.dtd">
<svg version="1.0" xmlns="http://www.w3.org/2000/svg"
 width="1536.000000pt" height="1536.000000pt" viewBox="0 0 1536.000000 1536.000000"
 preserveAspectRatio="xMidYMid meet">
<metadata>
Created by potrace 1.11, written by Peter Selinger 2001-2013
</metadata>
<g transform="translate(0.000000,1536.000000) scale(0.100000,-0.100000)"
fill="#000000" stroke="none">
<path d="M0 7680 l0 -7680 7680 0 7680 0 0 7680 0 7680 -7680 0 -7680 0 0
-7680z m6115 4511 c540 -110 1047 -489 1479 -1108 39 -57 73 -103 76 -103 3 0
18 19 35 42 147 209 512 596 705 748 223 177 441 301 647 370 175 58 249 71
438 77 482 16 917 -131 1300 -438 307 -247 616 -665 802 -1087 163 -367 291
-880 348 -1392 50 -457 48 -315 52 -3332 l4 -2818 -1191 0 -1190 0 0 2548 c0
1704 -4 2585 -11 2662 -37 405 -137 563 -359 564 -64 0 -83 -4 -129 -29 -147
-81 -230 -292 -261 -670 -6 -75 -10 -1056 -10 -2597 l0 -2478 -1190 0 -1190 0
0 2543 c0 1719 -4 2579 -11 2657 -30 325 -94 482 -221 544 -166 80 -319 17
-408 -169 -59 -122 -92 -270 -110 -500 -6 -73 -10 -1096 -10 -2597 l0 -2478
-1190 0 -1191 0 4 2898 c3 2093 7 2930 15 3017 46 472 107 782 227 1140 73
219 129 355 226 545 400 788 965 1297 1586 1430 159 34 217 39 423 36 153 -3
219 -8 305 -25z"/>
</g>
</svg>
